<svg width="154" height="154" viewBox="0 0 154 154" fill="none" xmlns="http://www.w3.org/2000/svg">
<path d="M115.214 74.4353C115.835 71.1737 115.37 65.5814 115.603 62.1636C116.301 54.008 114.67 49.7679 116.068 41.6904C118.487 27.7068 116.345 20.9737 121.161 15.1487C125.046 10.411 133.313 9.55344 139.682 10.0955C148.537 10.852 149.392 15.3432 149.392 21.4928C149.392 30.0389 149.683 26.3868 149.683 33.0188C149.683 35.1687 148.736 36.9434 145.854 37.804C138.889 39.882 136.808 37.4426 136.808 40.9615C135.953 45.3104 136.808 52.3313 136.808 56.8363C136.808 75.4015 137.351 93.8887 139.682 112.452C140.46 118.668 141.314 125.115 141.314 131.328C141.314 132.572 141.934 140.185 139.682 142.323C137.431 144.459 136.376 144.497 135.134 142.323C134.445 141.119 131.765 133.013 129.499 132.028C125.655 130.358 94.6883 133.108 81.7352 132.028C79.1718 131.794 77.5395 131.717 77.3067 131.794C75.6438 132.596 77.126 134.746 75.2962 139.798C73.8032 143.917 73.3453 144.499 70.0837 142.323C66.822 140.149 66.7455 130.082 64.4164 127.751C62.0858 125.422 55.0909 125.813 54.0037 125.813C50.275 125.813 6.99036 131.452 4.59544 126.747C2.78853 123.197 4.02427 121.908 6.52485 120.582C9.47256 119.017 32.3422 111.286 37.547 110.304C54.7893 105.297 60.8225 105.159 70.0837 93.0005C73.3453 88.5751 74.5887 80.0306 106.825 75.3694C107.058 75.2913 114.67 73.8932 115.214 74.4353Z" fill="#1E9A64"/>
<path d="M137.295 19.5389C137.379 20.5894 137.295 21.0656 137.295 21.7455" stroke="#292524" stroke-width="0.612512" stroke-miterlimit="2.854" stroke-linecap="round" stroke-linejoin="round"/>
</svg>
