<svg width="205" height="205" viewBox="0 0 205 205" fill="none" xmlns="http://www.w3.org/2000/svg">
<g clip-path="url(#clip0_8_9)">
<path fill-rule="evenodd" clip-rule="evenodd" d="M95.5472 133.196C96.1474 134.604 97.047 136.721 97.1634 136.722C97.6387 137.698 97.9119 138.025 98.2278 138.404C98.4713 138.694 98.7391 139.017 99.1436 139.687C106.13 134.633 118.948 128 126.785 124.921C124.806 120.857 123.414 116.396 124.387 112.546C125.876 106.674 128.637 100.98 131.397 95.2866C137.134 83.4524 142.871 71.6217 137.171 58.2121C135.239 53.7369 132.535 50.3733 129.469 46.7751C126.455 43.2356 122.945 41.2695 119.037 39.0781C118.713 38.8974 118.39 38.7164 118.067 38.5351C113.08 35.709 106.293 34.4173 100.583 34.3245C81.836 34.094 64.5467 45.7965 53.5361 60.1065C50.2904 64.2314 46.7665 69.8068 45.589 74.9787C43.9624 82.0895 43.7339 88.1959 44.5804 95.4991C45.488 103.432 48.9618 112.083 54.7124 117.821C57.2916 120.425 60.4001 123.098 63.7508 124.75C68.6154 127.15 74.5561 127.381 80.3222 127.606C83.3946 127.725 86.4155 127.843 89.1975 128.285C91.4062 128.606 94.065 130.02 95.0344 132.01C95.1014 132.148 95.2979 132.611 95.5472 133.196Z" fill="#FBC604"/>
<path d="M115.317 165.234C105.642 165.596 98.8218 152.198 94.3703 145.417C91.6343 141.25 128.211 122.588 132.956 123.232C135.166 123.553 136.221 126.733 137.13 128.261C139.173 131.617 140.985 135.167 142.432 138.814C143.204 140.902 144.76 143.427 144.242 145.734C143.654 148.234 140.292 150.774 138.396 152.273C132.27 157.226 123.772 164.895 115.318 165.236L115.317 165.234Z" fill="#2953A7"/>
<path fill-rule="evenodd" clip-rule="evenodd" d="M81.0161 93.956C81.0497 91.9488 81.368 89.9564 81.9617 88.0386C81.4124 88.1928 80.8748 88.3863 80.3531 88.6175C77.2914 89.9654 74.5785 92.5927 73.0965 95.4637C72.4762 96.8098 72.1656 98.2844 72.0904 99.9595C72.0228 102.423 72.6949 104.153 73.7276 105.469C74.8102 106.846 76.4496 107.971 78.5953 108.876C82.9324 110.704 88.4564 111.292 93.1792 111.796L93.3284 111.812L93.3694 111.816C94.1834 111.913 94.9237 111.916 95.8413 111.918C96.2132 111.92 96.6138 111.92 97.0603 111.928C98.4735 111.952 100.172 112.053 101.958 112.665C103.367 113.13 104.411 114.149 105.103 114.969C105.854 115.855 106.506 116.892 107.051 117.863C107.839 119.264 108.575 120.863 109.059 121.918C109.224 122.274 109.359 122.567 109.458 122.771C109.556 122.972 109.802 123.54 110.107 124.244C110.44 125.013 110.846 125.948 111.206 126.745C111.542 127.502 111.899 128.249 112.275 128.987C112.417 129.258 112.524 129.45 112.6 129.57C113.033 130.015 113.308 130.57 113.414 131.158C111.689 132.061 109.966 132.996 108.304 133.937C107.981 133.636 107.7 133.293 107.469 132.918L107.458 132.901C107.238 132.549 107.033 132.187 106.844 131.817C106.414 130.977 106.007 130.126 105.623 129.264C105.223 128.376 104.835 127.482 104.529 126.774L104.433 126.555C104.292 126.228 104.15 125.901 104.007 125.575L103.982 125.519L103.965 125.485L103.949 125.453C103.762 125.068 103.57 124.645 103.362 124.195C102.897 123.183 102.368 122.03 101.711 120.863C101.257 120.052 100.82 119.39 100.425 118.921C100.286 118.748 100.129 118.591 99.955 118.453C99.0959 118.161 98.1723 118.073 96.9562 118.052C96.6773 118.048 96.3983 118.047 96.1194 118.047C95.1072 118.046 93.8553 118.043 92.6583 117.9L92.1863 117.851C87.698 117.374 81.4024 116.705 76.2171 114.52C73.4809 113.368 70.8418 111.711 68.9097 109.251C66.9336 106.732 65.8587 103.573 65.968 99.7609L65.9705 99.7171C66.0702 97.3965 66.5192 95.0728 67.5701 92.8238L67.6163 92.7264C69.714 88.6222 73.474 84.9519 77.8836 83.0108C80.163 82.0082 82.6768 81.4483 85.2334 81.5676C88.6848 76.9627 94.0915 73.911 100.858 74.6559L100.871 74.6568L101.141 74.6884C102.024 74.7867 103.196 74.9195 104.35 75.1528C105.592 75.4049 107.103 75.8269 108.409 76.6576C109.365 77.2614 110.244 77.979 111.027 78.7944C111.647 78.4839 112.252 78.2197 112.824 78.0079L112.85 77.9986L112.877 77.9886C115.322 77.1288 118.457 77.135 120.45 77.2971C121.119 77.3645 121.783 77.4698 122.44 77.6124C122.747 77.6807 123.484 77.848 124.106 78.2011C124.288 78.3051 124.613 78.5091 124.928 78.848C125.243 79.1855 125.754 79.8853 125.785 80.9157C125.798 81.3375 125.726 81.7575 125.574 82.1512C125.422 82.5448 125.193 82.9042 124.9 83.2082C124.616 83.5023 124.281 83.7437 123.912 83.921C123.374 84.183 122.771 84.2818 122.178 84.2051C121.585 84.1284 121.027 83.8796 120.573 83.4894C120.39 83.4591 120.207 83.4321 120.023 83.4083L119.987 83.4051L119.957 83.4028C118.202 83.2611 116.137 83.3435 114.933 83.7575C114.816 83.8021 114.699 83.8488 114.583 83.8976C115.972 86.7262 116.882 90.221 116.202 93.4237L116.202 93.4306C115.613 96.1699 113.461 98.597 111.052 99.7565C109.789 100.363 108.216 100.739 106.562 100.412C104.839 100.072 103.381 99.0383 102.345 97.4749C100.838 95.2552 100.383 92.8679 100.76 90.5605C101.123 88.3344 102.223 86.3668 103.513 84.7524C104.205 83.8872 104.993 83.073 105.83 82.3264C105.606 82.1448 105.37 81.9785 105.124 81.8286C104.764 81.5954 104.117 81.3551 103.133 81.1564C102.258 80.9795 101.353 80.8768 100.435 80.772L100.183 80.7433C96.9252 80.3879 93.988 81.4843 91.7316 83.4925C92.0236 83.662 92.3114 83.8438 92.6011 84.0365L92.6195 84.0497C95.8221 86.2406 98.6285 89.6396 99.4232 93.3947C99.8363 95.3378 99.7149 97.4425 98.7155 99.416C97.7196 101.383 95.9987 102.931 93.7271 104.037C91.925 104.915 90.0647 105.131 88.3017 104.693C86.5859 104.268 85.1957 103.284 84.1495 102.15C82.1181 99.9511 80.9872 96.7753 81.0167 93.9677L81.0161 93.956ZM88.6501 97.9967C87.7279 96.9981 87.1281 95.3536 87.1412 94.0375C87.1649 92.16 87.5336 90.3028 88.2288 88.5585C88.5462 88.7207 88.8607 88.9048 89.1708 89.1115C91.5003 90.7091 93.0586 92.8985 93.4325 94.6665C93.606 95.4847 93.5137 96.1275 93.25 96.6493C92.9842 97.1773 92.3907 97.8751 91.0456 98.53C90.4261 98.8317 90.0311 98.8111 89.7736 98.7475C89.4731 98.6724 89.0801 98.4635 88.6501 97.9967ZM112.689 129.702C112.674 129.684 112.659 129.665 112.647 129.646C112.662 129.663 112.676 129.682 112.688 129.702L112.689 129.702ZM119.945 83.402L119.956 83.4034L119.945 83.3999L119.945 83.402ZM108.295 88.5789C108.645 88.144 109.022 87.7316 109.425 87.3444C110.221 89.2285 110.462 90.9576 110.21 92.1479C110.153 92.4144 109.969 92.8275 109.601 93.2674C109.271 93.6706 108.861 94.0008 108.397 94.2368C107.989 94.4339 107.776 94.4097 107.747 94.4033C107.74 94.4018 107.729 94.4003 107.702 94.3809C107.6 94.2996 107.514 94.2002 107.447 94.0878C107.437 94.0728 107.427 94.0579 107.417 94.043C106.792 93.1263 106.677 92.3238 106.803 91.5485C106.944 90.683 107.423 89.6696 108.297 88.5783L108.295 88.5789Z" fill="#292524"/>
</g>
<defs>
<clipPath id="clip0_8_9">
<rect width="153.128" height="153.128" fill="white" transform="translate(0 67.0385) rotate(-25.9632)"/>
</clipPath>
</defs>
</svg>
