<svg width="45" height="44" viewBox="0 0 45 44" fill="none" xmlns="http://www.w3.org/2000/svg">
<g clip-path="url(#clip0_8_33)">
<path d="M24.6008 27.1542C26.9181 31.1286 28.6723 34.9196 28.5617 38.8651V38.8661C28.5458 39.4416 28.4525 39.936 28.3137 40.2743C28.2484 40.4333 28.1891 40.5192 28.1564 40.5575C28.1495 40.5656 28.1429 40.5711 28.1388 40.5751C28.1177 40.5763 28.0759 40.5758 28.0099 40.5614C27.856 40.5277 27.6692 40.4392 27.5138 40.3075C27.1458 39.9954 26.8176 39.489 26.4513 38.6767L26.2922 38.3095C24.8213 34.7725 24.2466 30.9417 24.6008 27.1542ZM19.6691 25.9589C18.9251 30.0046 18.0081 33.6681 15.9777 36.6884C15.6147 37.2267 15.1759 37.6662 14.8058 37.8925C14.7391 37.9333 14.6843 37.9599 14.6418 37.9794C14.6241 37.928 14.6033 37.8581 14.5842 37.7636C14.486 37.2795 14.5144 36.5753 14.675 35.8651C15.5155 32.1955 17.2348 28.7986 19.6691 25.9589ZM28.5002 23.9149C32.7334 24.3964 36.7568 26.0339 40.1252 28.6542V28.6552C40.6573 29.0707 41.087 29.5622 41.2892 29.954C41.2958 29.9667 41.3011 29.9794 41.3068 29.9911C41.1319 30.0567 40.8816 30.1198 40.5519 30.162L40.5451 30.163C36.1313 30.7395 31.4702 28.1534 28.6222 24.122C28.5812 24.0529 28.5412 23.9836 28.5002 23.9149ZM20.8351 19.0614C21.1613 19.4009 21.4888 19.7439 21.8166 20.0907L25.0353 23.497L23.7492 24.2225L21.1017 23.7216L19.8263 21.9618L20.8351 19.0614ZM28.0715 19.1503L27.9299 22.9745C27.7599 22.6953 27.5936 22.4182 27.4269 22.1464L26.6721 22.5722L26.1242 18.1434L26.9328 18.1308L28.0715 19.1503ZM2.91033 22.0009C4.54525 20.6821 7.16958 20.5278 10.3771 20.9579C11.8301 21.1527 13.2729 21.4113 14.7023 21.7294C10.9035 22.9119 6.76498 23.0321 2.92986 22.0067L2.92693 22.0058L2.91033 22.0009ZM40.839 12.745C41.244 12.7003 41.558 12.7066 41.7775 12.745C41.8447 12.7568 41.8921 12.7695 41.924 12.7802C41.927 12.7948 41.9342 12.8122 41.9367 12.8349C41.9531 12.9857 41.9225 13.1831 41.8459 13.3466C41.615 13.8394 41.0962 14.3551 40.132 15.0243C37.3047 16.9756 34.0648 18.2172 30.6838 18.6698C33.9911 15.5809 37.171 13.1508 40.839 12.745ZM8.78728 10.661C12.7315 11.5538 16.1175 14.3116 19.4933 17.6903C15.1262 15.9607 11.2532 13.8781 8.78728 10.661ZM32.0138 3.21962C31.1835 6.58582 29.8776 9.80744 28.1428 12.7909C28.7235 8.99313 29.7532 5.66455 32.0138 3.21962ZM19.5471 6.03212C20.5336 7.72478 21.1671 9.65997 21.6232 11.7694C20.4881 9.90423 19.7388 7.9612 19.5471 6.03212Z" fill="#FFADE3" stroke="#26103D" stroke-width="5"/>
<path d="M22.2203 17.6933C24.344 17.6933 26.0649 19.414 26.065 21.535C26.065 23.6562 24.3441 25.3778 22.2203 25.3778C20.0967 25.3777 18.3766 23.6561 18.3766 21.535C18.3767 19.4141 20.0968 17.6934 22.2203 17.6933Z" fill="#5C59ED" stroke="#26103D" stroke-width="5"/>
</g>
<defs>
<clipPath id="clip0_8_33">
<rect width="44.4411" height="43.0706" fill="white"/>
</clipPath>
</defs>
</svg>
