<svg width="45" height="44" viewBox="0 0 45 44" fill="none" xmlns="http://www.w3.org/2000/svg">
<g clip-path="url(#clip0_8_41)">
<path d="M24.6008 27.1543C26.9181 31.1286 28.6723 34.9196 28.5617 38.8652V38.8662C28.5458 39.4416 28.4525 39.936 28.3137 40.2744C28.2484 40.4334 28.1891 40.5193 28.1564 40.5576C28.1495 40.5657 28.1429 40.5712 28.1389 40.5752C28.1177 40.5764 28.0759 40.5759 28.0099 40.5615C27.856 40.5278 27.6692 40.4393 27.5139 40.3076C27.1458 39.9955 26.8176 39.4891 26.4514 38.6767L26.2922 38.3095C24.8213 34.7726 24.2466 30.9418 24.6008 27.1543ZM19.6691 25.959C18.9251 30.0046 18.0081 33.6682 15.9777 36.6884C15.6147 37.2268 15.1759 37.6662 14.8058 37.8925C14.7391 37.9334 14.6843 37.9599 14.6418 37.9795C14.6241 37.9281 14.6033 37.8582 14.5842 37.7636C14.486 37.2796 14.5144 36.5754 14.675 35.8652C15.5155 32.1956 17.2348 28.7987 19.6691 25.959ZM28.5002 23.915C32.7334 24.3965 36.7568 26.034 40.1252 28.6543V28.6552C40.6573 29.0708 41.087 29.5623 41.2892 29.9541C41.2958 29.9668 41.3011 29.9795 41.3068 29.9912C41.1319 30.0567 40.8816 30.1199 40.5519 30.1621L40.5451 30.1631C36.1313 30.7396 31.4702 28.1535 28.6223 24.122C28.5812 24.053 28.5412 23.9836 28.5002 23.915ZM20.8351 19.0615C21.1613 19.401 21.4888 19.7439 21.8166 20.0908L25.0353 23.497L23.7492 24.2226L21.1017 23.7216L19.8264 21.9619L20.8351 19.0615ZM28.0715 19.1504L27.9299 22.9746C27.7599 22.6954 27.5937 22.4183 27.4269 22.1465L26.6721 22.5722L26.1242 18.1435L26.9328 18.1308L28.0715 19.1504ZM2.91034 22.0009C4.54525 20.6822 7.16959 20.5279 10.3771 20.958C11.8301 21.1527 13.2729 21.4114 14.7023 21.7295C10.9035 22.912 6.76499 23.0321 2.92987 22.0068L2.92694 22.0058L2.91034 22.0009ZM40.8391 12.7451C41.244 12.7003 41.558 12.7066 41.7775 12.7451C41.8447 12.7569 41.8921 12.7696 41.924 12.7802C41.927 12.7948 41.9343 12.8123 41.9367 12.8349C41.9531 12.9858 41.9225 13.1831 41.8459 13.3466C41.615 13.8395 41.0962 14.3552 40.132 15.0244C37.3048 16.9756 34.0648 18.2172 30.6838 18.6699C33.9911 15.581 37.171 13.1509 40.8391 12.7451ZM8.78729 10.6611C12.7315 11.5538 16.1175 14.3116 19.4933 17.6904C15.1262 15.9608 11.2532 13.8781 8.78729 10.6611ZM32.0139 3.2197C31.1835 6.58589 29.8776 9.80752 28.1428 12.791C28.7235 8.99321 29.7532 5.66463 32.0139 3.2197ZM19.5471 6.0322C20.5336 7.72485 21.1671 9.66005 21.6232 11.7695C20.4881 9.9043 19.7388 7.96128 19.5471 6.0322Z" fill="#098AF5" stroke="#26103D" stroke-width="5"/>
<path d="M22.2203 17.6933C24.344 17.6933 26.0649 19.414 26.0651 21.5351C26.0651 23.6562 24.3441 25.3778 22.2203 25.3778C20.0967 25.3777 18.3766 23.6561 18.3766 21.5351C18.3767 19.4141 20.0968 17.6934 22.2203 17.6933Z" fill="#FED33D" stroke="#26103D" stroke-width="5"/>
</g>
<defs>
<clipPath id="clip0_8_41">
<rect width="44.4411" height="43.0706" fill="white"/>
</clipPath>
</defs>
</svg>
